<svg xmlns="http://www.w3.org/2000/svg" xmlns:xlink="http://www.w3.org/1999/xlink" width="500" zoomAndPan="magnify" viewBox="0 0 375 374.999991" height="500" preserveAspectRatio="xMidYMid meet" version="1.0"><defs><g/><clipPath id="e57b9214b7"><path d="M 30.859375 20.917969 L 337.5 20.917969 L 337.5 338 L 30.859375 338 Z M 30.859375 20.917969 " clip-rule="nonzero"/></clipPath><clipPath id="99b273b80c"><path d="M 184.179688 20.917969 C 99.503906 20.917969 30.859375 91.785156 30.859375 179.207031 C 30.859375 266.628906 99.503906 337.5 184.179688 337.5 C 268.855469 337.5 337.5 266.628906 337.5 179.207031 C 337.5 91.785156 268.855469 20.917969 184.179688 20.917969 Z M 184.179688 20.917969 " clip-rule="nonzero"/></clipPath><clipPath id="f3a1e455e8"><path d="M 112 58 L 273 58 L 273 270 L 112 270 Z M 112 58 " clip-rule="nonzero"/></clipPath><clipPath id="48d2af7353"><path d="M 254.546875 276.476562 L 105.003906 64.394531 L 166.300781 21.175781 L 315.839844 233.253906 Z M 254.546875 276.476562 " clip-rule="nonzero"/></clipPath><clipPath id="4339dc6414"><path d="M 254.546875 276.476562 L 105.003906 64.394531 L 166.300781 21.175781 L 315.839844 233.253906 Z M 254.546875 276.476562 " clip-rule="nonzero"/></clipPath><clipPath id="5c92db1126"><path d="M 254.546875 276.476562 L 105.003906 64.394531 L 166.300781 21.175781 L 315.839844 233.253906 Z M 254.546875 276.476562 " clip-rule="nonzero"/></clipPath><clipPath id="6526a3ad0b"><path d="M 112 58 L 274 58 L 274 271 L 112 271 Z M 112 58 " clip-rule="nonzero"/></clipPath><clipPath id="f649676524"><path d="M 254.546875 276.476562 L 105.003906 64.394531 L 166.300781 21.175781 L 315.839844 233.253906 Z M 254.546875 276.476562 " clip-rule="nonzero"/></clipPath><clipPath id="2ffdeef817"><path d="M 254.546875 276.476562 L 105.003906 64.394531 L 166.300781 21.175781 L 315.839844 233.253906 Z M 254.546875 276.476562 " clip-rule="nonzero"/></clipPath><clipPath id="b25bcdef45"><path d="M 254.546875 276.476562 L 105.003906 64.394531 L 166.300781 21.175781 L 315.839844 233.253906 Z M 254.546875 276.476562 " clip-rule="nonzero"/></clipPath></defs><g clip-path="url(#e57b9214b7)"><g clip-path="url(#99b273b80c)"><path fill="#000000" d="M 30.859375 20.917969 L 337.5 20.917969 L 337.5 337.140625 L 30.859375 337.140625 Z M 30.859375 20.917969 " fill-opacity="1" fill-rule="nonzero"/></g></g><g fill="#ffffff" fill-opacity="1"><g transform="translate(82.046777, 266.943075)"><g><path d="M -6 -4.5 L 18.015625 -13.515625 L 100.625 -213.25 L 109.625 -213.25 L 195.234375 -9.015625 L 210.25 -4.5 L 210.25 0 L 174.203125 0 C 163.796875 0 155.285156 -2.347656 148.671875 -7.046875 C 142.066406 -11.753906 137.160156 -17.914062 133.953125 -25.53125 L 118.640625 -61.578125 L 46.859375 -61.578125 L 27.03125 -13.515625 L 49.5625 -4.5 L 49.5625 0 L -6 0 Z M 49.859375 -69.078125 L 115.640625 -69.078125 L 82.59375 -148.078125 Z M 49.859375 -69.078125 "/></g></g></g><g fill="#ffffff" fill-opacity="1"><g transform="translate(141.812412, 250.337943)"><g><path d="M 3.671875 2.78125 C 1.203125 2.570312 -0.03125 1.304688 -0.03125 -1.015625 C -0.03125 -2.390625 0.398438 -3.84375 1.265625 -5.375 C 1.785156 -6.300781 2.429688 -7.203125 3.203125 -8.078125 C 3.984375 -8.960938 4.832031 -9.757812 5.75 -10.46875 C 6.664062 -11.1875 7.609375 -11.753906 8.578125 -12.171875 C 9.546875 -12.585938 10.476562 -12.796875 11.375 -12.796875 C 12.957031 -12.796875 13.75 -12.210938 13.75 -11.046875 C 13.75 -10.253906 13.507812 -9.378906 13.03125 -8.421875 C 12.550781 -7.460938 12.0625 -6.851562 11.5625 -6.59375 C 11.519531 -6.582031 11.46875 -6.578125 11.40625 -6.578125 C 11.351562 -6.578125 11.328125 -6.59375 11.328125 -6.625 L 12.125 -7.921875 C 12.664062 -8.816406 12.9375 -9.597656 12.9375 -10.265625 C 12.9375 -10.742188 12.804688 -11.195312 12.546875 -11.625 C 12.296875 -12.0625 11.84375 -12.28125 11.1875 -12.28125 C 10.382812 -12.28125 9.5625 -12.054688 8.71875 -11.609375 C 7.882812 -11.160156 7.070312 -10.566406 6.28125 -9.828125 C 5.5 -9.097656 4.785156 -8.289062 4.140625 -7.40625 C 3.503906 -6.519531 2.992188 -5.644531 2.609375 -4.78125 C 1.796875 -2.9375 1.390625 -1.445312 1.390625 -0.3125 C 1.390625 1.394531 2.265625 2.25 4.015625 2.25 C 5.671875 2.25 7.925781 1.179688 10.78125 -0.953125 C 11.4375 -1.453125 12.28125 -2.148438 13.3125 -3.046875 C 14.34375 -3.941406 15.550781 -5.03125 16.9375 -6.3125 C 16.75 -6.289062 16.507812 -6.269531 16.21875 -6.25 C 15.9375 -6.226562 15.601562 -6.1875 15.21875 -6.125 C 15.050781 -6.09375 14.894531 -6.0625 14.75 -6.03125 C 14.613281 -6.007812 14.484375 -6 14.359375 -6 C 14.035156 -6.03125 13.894531 -6.109375 13.9375 -6.234375 C 14.007812 -6.828125 14.316406 -7.125 14.859375 -7.125 C 15.347656 -7.0625 15.8125 -7.015625 16.25 -6.984375 C 16.695312 -6.953125 17.117188 -6.9375 17.515625 -6.9375 C 18.140625 -7.507812 18.96875 -8.3125 20 -9.34375 C 21.03125 -10.375 22.257812 -11.644531 23.6875 -13.15625 C 25.53125 -15.09375 26.648438 -16.0625 27.046875 -16.0625 C 27.222656 -16.0625 27.3125 -15.898438 27.3125 -15.578125 C 27.3125 -15.453125 27.296875 -15.289062 27.265625 -15.09375 C 27.234375 -14.90625 27.1875 -14.679688 27.125 -14.421875 C 26.957031 -13.816406 26.785156 -13.445312 26.609375 -13.3125 C 26.117188 -12.96875 25.707031 -12.519531 25.375 -11.96875 C 25.050781 -11.414062 24.722656 -10.800781 24.390625 -10.125 C 24.046875 -9.4375 23.734375 -8.820312 23.453125 -8.28125 C 23.179688 -7.75 22.929688 -7.273438 22.703125 -6.859375 L 25.03125 -6.90625 C 25.601562 -6.90625 25.890625 -6.867188 25.890625 -6.796875 C 25.890625 -6.773438 25.875 -6.75 25.84375 -6.71875 C 25.570312 -6.539062 24.421875 -6.378906 22.390625 -6.234375 C 20.898438 -3.335938 20.15625 -1.351562 20.15625 -0.28125 C 20.15625 0.445312 20.390625 0.8125 20.859375 0.8125 C 21.035156 0.8125 21.257812 0.703125 21.53125 0.484375 C 21.78125 0.273438 21.941406 0.171875 22.015625 0.171875 C 22.015625 0.140625 22.019531 0.128906 22.03125 0.140625 C 22.050781 0.160156 22.046875 0.171875 22.015625 0.171875 C 21.929688 0.453125 21.691406 0.707031 21.296875 0.9375 C 20.910156 1.175781 20.5 1.296875 20.0625 1.296875 C 19.664062 1.296875 19.398438 1.164062 19.265625 0.90625 C 19.140625 0.65625 19.078125 0.304688 19.078125 -0.140625 C 19.078125 -1.753906 19.691406 -3.8125 20.921875 -6.3125 L 18.046875 -6.234375 C 15.898438 -4.140625 13.75 -2.300781 11.59375 -0.71875 C 8.15625 1.78125 5.515625 2.945312 3.671875 2.78125 Z M 21.140625 -6.9375 C 21.335938 -7.300781 21.722656 -7.96875 22.296875 -8.9375 C 22.867188 -9.90625 23.644531 -11.164062 24.625 -12.71875 L 18.484375 -6.953125 Z M 21.140625 -6.9375 "/></g></g></g><g fill="#ffffff" fill-opacity="1"><g transform="translate(166.292455, 250.337943)"><g><path d="M 6.125 0.046875 C 5.6875 0.046875 5.378906 -0.078125 5.203125 -0.328125 C 5.023438 -0.578125 4.9375 -0.882812 4.9375 -1.25 C 4.9375 -2.175781 5.257812 -3.164062 5.90625 -4.21875 L 7.4375 -6.71875 C 6.351562 -5.914062 5.273438 -4.914062 4.203125 -3.71875 C 3.910156 -3.394531 3.582031 -3.015625 3.21875 -2.578125 C 2.863281 -2.148438 2.472656 -1.660156 2.046875 -1.109375 C 1.460938 -0.347656 1.117188 0.03125 1.015625 0.03125 C 0.785156 0.03125 0.597656 -0.0664062 0.453125 -0.265625 C 0.304688 -0.472656 0.234375 -0.65625 0.234375 -0.8125 C 0.234375 -0.945312 0.273438 -1.1875 0.359375 -1.53125 C 0.441406 -1.875 0.535156 -2.171875 0.640625 -2.421875 C 0.753906 -2.691406 0.867188 -2.957031 0.984375 -3.21875 C 1.109375 -3.488281 1.226562 -3.753906 1.34375 -4.015625 L -0.09375 -2.5 C -0.125 -2.46875 -0.21875 -2.367188 -0.375 -2.203125 C -0.539062 -2.046875 -0.671875 -1.96875 -0.765625 -1.96875 C -0.847656 -1.96875 -0.890625 -2.023438 -0.890625 -2.140625 C -0.890625 -2.171875 -0.875 -2.210938 -0.84375 -2.265625 C -0.820312 -2.328125 -0.773438 -2.394531 -0.703125 -2.46875 C -0.460938 -2.707031 -0.210938 -2.960938 0.046875 -3.234375 C 0.304688 -3.503906 0.570312 -3.816406 0.84375 -4.171875 C 0.988281 -4.347656 1.203125 -4.613281 1.484375 -4.96875 C 1.773438 -5.332031 2.09375 -5.722656 2.4375 -6.140625 C 2.78125 -6.554688 3.101562 -6.941406 3.40625 -7.296875 C 3.488281 -7.410156 3.578125 -7.484375 3.671875 -7.515625 C 3.765625 -7.554688 3.828125 -7.578125 3.859375 -7.578125 C 4.296875 -7.578125 4.515625 -7.410156 4.515625 -7.078125 C 4.515625 -6.984375 4.488281 -6.890625 4.4375 -6.796875 C 3 -4.804688 2.132812 -3.289062 1.84375 -2.25 C 3.695312 -4.113281 5.1875 -5.507812 6.3125 -6.4375 C 7.445312 -7.375 8.253906 -7.84375 8.734375 -7.84375 C 8.992188 -7.84375 9.191406 -7.800781 9.328125 -7.71875 C 9.460938 -7.644531 9.53125 -7.492188 9.53125 -7.265625 C 9.53125 -7.191406 9.519531 -7.128906 9.5 -7.078125 C 9.457031 -6.960938 9.128906 -6.515625 8.515625 -5.734375 C 8.148438 -5.285156 7.828125 -4.875 7.546875 -4.5 C 7.265625 -4.132812 7.035156 -3.816406 6.859375 -3.546875 C 6.578125 -3.097656 6.363281 -2.675781 6.21875 -2.28125 C 6.070312 -1.894531 6 -1.566406 6 -1.296875 C 6 -1.179688 6.015625 -1.039062 6.046875 -0.875 C 6.078125 -0.71875 6.175781 -0.640625 6.34375 -0.640625 C 6.707031 -0.640625 7.28125 -0.960938 8.0625 -1.609375 C 8.425781 -1.929688 8.769531 -2.253906 9.09375 -2.578125 C 9.414062 -2.910156 9.722656 -3.234375 10.015625 -3.546875 C 10.078125 -3.609375 10.175781 -3.734375 10.3125 -3.921875 C 10.457031 -4.109375 10.546875 -4.203125 10.578125 -4.203125 C 10.648438 -4.203125 10.6875 -4.140625 10.6875 -4.015625 C 10.6875 -3.941406 10.648438 -3.828125 10.578125 -3.671875 C 10.503906 -3.523438 10.425781 -3.414062 10.34375 -3.34375 C 10.164062 -3.132812 9.90625 -2.84375 9.5625 -2.46875 C 9.21875 -2.101562 8.832031 -1.726562 8.40625 -1.34375 C 7.988281 -0.957031 7.578125 -0.628906 7.171875 -0.359375 C 6.773438 -0.0859375 6.425781 0.046875 6.125 0.046875 Z M 6.125 0.046875 "/></g></g></g><g fill="#ffffff" fill-opacity="1"><g transform="translate(175.964475, 250.337943)"><g><path d="M 6.125 0.046875 C 5.6875 0.046875 5.378906 -0.078125 5.203125 -0.328125 C 5.023438 -0.578125 4.9375 -0.882812 4.9375 -1.25 C 4.9375 -2.175781 5.257812 -3.164062 5.90625 -4.21875 L 7.4375 -6.71875 C 6.351562 -5.914062 5.273438 -4.914062 4.203125 -3.71875 C 3.910156 -3.394531 3.582031 -3.015625 3.21875 -2.578125 C 2.863281 -2.148438 2.472656 -1.660156 2.046875 -1.109375 C 1.460938 -0.347656 1.117188 0.03125 1.015625 0.03125 C 0.785156 0.03125 0.597656 -0.0664062 0.453125 -0.265625 C 0.304688 -0.472656 0.234375 -0.65625 0.234375 -0.8125 C 0.234375 -0.945312 0.273438 -1.1875 0.359375 -1.53125 C 0.441406 -1.875 0.535156 -2.171875 0.640625 -2.421875 C 0.753906 -2.691406 0.867188 -2.957031 0.984375 -3.21875 C 1.109375 -3.488281 1.226562 -3.753906 1.34375 -4.015625 L -0.09375 -2.5 C -0.125 -2.46875 -0.21875 -2.367188 -0.375 -2.203125 C -0.539062 -2.046875 -0.671875 -1.96875 -0.765625 -1.96875 C -0.847656 -1.96875 -0.890625 -2.023438 -0.890625 -2.140625 C -0.890625 -2.171875 -0.875 -2.210938 -0.84375 -2.265625 C -0.820312 -2.328125 -0.773438 -2.394531 -0.703125 -2.46875 C -0.460938 -2.707031 -0.210938 -2.960938 0.046875 -3.234375 C 0.304688 -3.503906 0.570312 -3.816406 0.84375 -4.171875 C 0.988281 -4.347656 1.203125 -4.613281 1.484375 -4.96875 C 1.773438 -5.332031 2.09375 -5.722656 2.4375 -6.140625 C 2.78125 -6.554688 3.101562 -6.941406 3.40625 -7.296875 C 3.488281 -7.410156 3.578125 -7.484375 3.671875 -7.515625 C 3.765625 -7.554688 3.828125 -7.578125 3.859375 -7.578125 C 4.296875 -7.578125 4.515625 -7.410156 4.515625 -7.078125 C 4.515625 -6.984375 4.488281 -6.890625 4.4375 -6.796875 C 3 -4.804688 2.132812 -3.289062 1.84375 -2.25 C 3.695312 -4.113281 5.1875 -5.507812 6.3125 -6.4375 C 7.445312 -7.375 8.253906 -7.84375 8.734375 -7.84375 C 8.992188 -7.84375 9.191406 -7.800781 9.328125 -7.71875 C 9.460938 -7.644531 9.53125 -7.492188 9.53125 -7.265625 C 9.53125 -7.191406 9.519531 -7.128906 9.5 -7.078125 C 9.457031 -6.960938 9.128906 -6.515625 8.515625 -5.734375 C 8.148438 -5.285156 7.828125 -4.875 7.546875 -4.5 C 7.265625 -4.132812 7.035156 -3.816406 6.859375 -3.546875 C 6.578125 -3.097656 6.363281 -2.675781 6.21875 -2.28125 C 6.070312 -1.894531 6 -1.566406 6 -1.296875 C 6 -1.179688 6.015625 -1.039062 6.046875 -0.875 C 6.078125 -0.71875 6.175781 -0.640625 6.34375 -0.640625 C 6.707031 -0.640625 7.28125 -0.960938 8.0625 -1.609375 C 8.425781 -1.929688 8.769531 -2.253906 9.09375 -2.578125 C 9.414062 -2.910156 9.722656 -3.234375 10.015625 -3.546875 C 10.078125 -3.609375 10.175781 -3.734375 10.3125 -3.921875 C 10.457031 -4.109375 10.546875 -4.203125 10.578125 -4.203125 C 10.648438 -4.203125 10.6875 -4.140625 10.6875 -4.015625 C 10.6875 -3.941406 10.648438 -3.828125 10.578125 -3.671875 C 10.503906 -3.523438 10.425781 -3.414062 10.34375 -3.34375 C 10.164062 -3.132812 9.90625 -2.84375 9.5625 -2.46875 C 9.21875 -2.101562 8.832031 -1.726562 8.40625 -1.34375 C 7.988281 -0.957031 7.578125 -0.628906 7.171875 -0.359375 C 6.773438 -0.0859375 6.425781 0.046875 6.125 0.046875 Z M 6.125 0.046875 "/></g></g></g><g fill="#ffffff" fill-opacity="1"><g transform="translate(185.636494, 250.337943)"><g><path d="M 1.03125 0.046875 C 0.632812 0.046875 0.320312 -0.140625 0.09375 -0.515625 C -0.125 -0.890625 -0.234375 -1.253906 -0.234375 -1.609375 C -0.234375 -2.566406 0.457031 -3.910156 1.84375 -5.640625 C 3.25 -7.378906 4.382812 -8.25 5.25 -8.25 C 6.070312 -8.25 6.484375 -7.816406 6.484375 -6.953125 C 6.484375 -6.828125 6.46875 -6.691406 6.4375 -6.546875 C 6.414062 -6.410156 6.390625 -6.257812 6.359375 -6.09375 C 6.390625 -6.050781 6.46875 -6.03125 6.59375 -6.03125 C 7.03125 -6.03125 7.546875 -6.179688 8.140625 -6.484375 C 8.117188 -6.210938 7.484375 -5.816406 6.234375 -5.296875 C 6.410156 -4.773438 5.882812 -3.769531 4.65625 -2.28125 C 3.394531 -0.726562 2.316406 0.046875 1.421875 0.046875 Z M 1.46875 -0.671875 C 2.15625 -0.671875 3.035156 -1.300781 4.109375 -2.5625 C 5.140625 -3.800781 5.65625 -4.691406 5.65625 -5.234375 C 5.40625 -5.378906 5.085938 -5.75 4.703125 -6.34375 C 4.160156 -6.34375 3.378906 -5.6875 2.359375 -4.375 C 1.347656 -3.09375 0.859375 -2.109375 0.890625 -1.421875 C 0.898438 -0.921875 1.09375 -0.671875 1.46875 -0.671875 Z M 1.46875 -0.671875 "/></g></g></g><g fill="#ffffff" fill-opacity="1"><g transform="translate(192.380508, 250.337943)"><g><path d="M 1.828125 0.046875 C 1.359375 0.046875 0.921875 -0.0664062 0.515625 -0.296875 C 0.117188 -0.523438 -0.078125 -0.914062 -0.078125 -1.46875 C -0.078125 -2.21875 0.1875 -3.113281 0.71875 -4.15625 C 1.257812 -5.195312 1.875 -6.273438 2.5625 -7.390625 C 4.4375 -10.429688 5.765625 -11.953125 6.546875 -11.953125 C 6.710938 -11.953125 6.878906 -11.890625 7.046875 -11.765625 C 7.210938 -11.648438 7.300781 -11.519531 7.3125 -11.375 L 5.640625 -9.125 C 4.984375 -8.238281 4.390625 -7.421875 3.859375 -6.671875 C 3.335938 -5.929688 2.882812 -5.269531 2.5 -4.6875 C 2.300781 -4.375 2.082031 -4.023438 1.84375 -3.640625 C 1.601562 -3.265625 1.390625 -2.867188 1.203125 -2.453125 C 1.023438 -2.046875 0.9375 -1.632812 0.9375 -1.21875 C 0.9375 -1.03125 0.988281 -0.859375 1.09375 -0.703125 C 1.207031 -0.554688 1.410156 -0.484375 1.703125 -0.484375 C 2.210938 -0.484375 2.882812 -0.757812 3.71875 -1.3125 C 4.550781 -1.863281 5.375 -2.625 6.1875 -3.59375 C 6.269531 -3.695312 6.359375 -3.785156 6.453125 -3.859375 C 6.546875 -3.941406 6.628906 -3.984375 6.703125 -3.984375 C 6.773438 -3.984375 6.8125 -3.9375 6.8125 -3.84375 C 6.8125 -3.789062 6.757812 -3.695312 6.65625 -3.5625 C 6.550781 -3.425781 6.46875 -3.316406 6.40625 -3.234375 L 5.828125 -2.59375 C 5.515625 -2.238281 5.132812 -1.851562 4.6875 -1.4375 C 4.25 -1.019531 3.785156 -0.664062 3.296875 -0.375 C 2.804688 -0.09375 2.316406 0.046875 1.828125 0.046875 Z M 1.828125 0.046875 "/></g></g></g><g clip-path="url(#f3a1e455e8)"><g clip-path="url(#48d2af7353)"><g clip-path="url(#4339dc6414)"><g clip-path="url(#5c92db1126)"><path fill="#000000" d="M 127.132812 91.46875 C 131.058594 96.074219 135.582031 100.046875 140.578125 103.277344 C 144.640625 105.910156 148.933594 107.992188 153.375 109.492188 C 154.070312 112.40625 155.28125 115.292969 156.992188 118.109375 C 159.214844 121.777344 162.3125 125.320312 165.953125 128.359375 C 177.621094 138.097656 192.886719 142.257812 206.285156 145.042969 C 209.167969 145.640625 212.113281 146.210938 214.964844 146.761719 C 226.226562 148.9375 237.871094 151.1875 248.472656 155.832031 C 259.820312 160.800781 271.78125 170.792969 271.320312 183.949219 C 271.09375 190.398438 267.78125 196.960938 261.46875 203.484375 C 257.574219 197.691406 252.832031 192.660156 247.347656 188.519531 C 240.25 183.15625 233.171875 180.320312 226.3125 180.097656 C 222.425781 179.96875 218.402344 180.835938 214.976562 182.542969 C 211.292969 184.378906 208.414062 187.085938 206.648438 190.371094 C 204.621094 194.136719 204.109375 198.738281 205.203125 203.328125 C 205.851562 206.054688 207.019531 208.628906 208.605469 210.875 C 209.597656 212.28125 210.753906 213.5625 212.046875 214.671875 C 215.261719 217.433594 219.367188 219.351562 223.921875 220.226562 C 228.199219 221.050781 232.777344 220.949219 237.171875 219.933594 C 244.746094 218.1875 252.359375 213.828125 259.800781 206.984375 C 260.296875 206.527344 260.777344 206.074219 261.242188 205.617188 C 265.25 211.925781 268.132812 218.953125 269.609375 226.25 C 272.527344 240.675781 269.972656 256.261719 262.605469 269.015625 L 263.769531 269.6875 C 267.527344 263.179688 270.0625 256.046875 271.300781 248.476562 C 272.539062 240.910156 272.414062 233.339844 270.925781 225.980469 C 269.4375 218.625 266.613281 211.601562 262.527344 205.113281 C 262.429688 204.953125 262.328125 204.792969 262.222656 204.636719 C 268.914062 197.789062 272.421875 190.859375 272.664062 183.996094 C 272.777344 180.761719 272.171875 177.542969 270.859375 174.429688 C 269.664062 171.582031 267.875 168.816406 265.546875 166.207031 C 261.417969 161.582031 255.546875 157.460938 249.015625 154.601562 C 238.273438 149.898438 226.554688 147.632812 215.222656 145.441406 C 212.375 144.890625 209.433594 144.324219 206.5625 143.726562 C 193.324219 140.976562 178.253906 136.875 166.816406 127.328125 C 163.074219 124.203125 157.105469 118.164062 154.878906 109.976562 C 155.554688 110.183594 156.230469 110.378906 156.910156 110.558594 C 163.585938 112.320312 169.15625 112.429688 173.933594 110.894531 C 176.734375 109.992188 179.371094 108.347656 181.355469 106.261719 C 183.507812 104 184.832031 101.328125 185.183594 98.53125 C 185.6875 94.507812 183.976562 90.460938 180.484375 87.425781 C 176.496094 83.957031 171.136719 82.582031 166.492188 83.835938 C 162.269531 84.976562 158.535156 87.902344 155.988281 92.078125 C 153.550781 96.0625 152.394531 100.773438 152.726562 105.34375 C 152.789062 106.214844 152.898438 107.085938 153.050781 107.957031 C 132.488281 100.625 116.496094 80.667969 114.316406 58.921875 L 112.980469 59.058594 C 113.570312 64.925781 115.121094 70.738281 117.589844 76.328125 C 119.996094 81.769531 123.207031 86.863281 127.132812 91.46875 Z M 258.890625 205.996094 C 251.625 212.679688 244.214844 216.929688 236.871094 218.625 C 228.046875 220.660156 218.871094 218.753906 212.921875 213.652344 C 206.296875 207.964844 204.058594 198.019531 207.832031 191.003906 C 211.046875 185.027344 218.453125 181.183594 226.265625 181.4375 C 232.84375 181.65625 239.664062 184.398438 246.539062 189.589844 C 251.539062 193.367188 255.929688 197.957031 259.554688 203.097656 C 259.875 203.550781 260.1875 204.007812 260.496094 204.46875 C 259.980469 204.976562 259.445312 205.488281 258.890625 205.996094 Z M 154.066406 105.246094 C 153.480469 97.210938 158.101562 87.492188 166.84375 85.132812 C 171.058594 83.992188 175.949219 85.261719 179.601562 88.441406 C 180.480469 89.203125 181.230469 90.03125 181.851562 90.910156 C 183.457031 93.1875 184.171875 95.789062 183.847656 98.367188 C 183.230469 103.308594 179.078125 107.828125 173.523438 109.613281 C 168.996094 111.070312 163.675781 110.953125 157.253906 109.257812 C 156.332031 109.015625 155.417969 108.746094 154.511719 108.453125 C 154.296875 107.414062 154.144531 106.34375 154.066406 105.246094 Z M 154.066406 105.246094 " fill-opacity="1" fill-rule="nonzero"/></g></g></g></g><g clip-path="url(#6526a3ad0b)"><g clip-path="url(#f649676524)"><g clip-path="url(#2ffdeef817)"><g clip-path="url(#b25bcdef45)"><path stroke-linecap="butt" transform="matrix(-0.0135987, -0.0192858, 0.0193054, -0.0136125, 254.620651, 276.155547)" fill="none" stroke-linejoin="miter" d="M 9509.457361 94.701901 C 9254.089929 118.173017 9006.043759 177.75911 8772.159302 271.803712 C 8581.771652 348.128214 8404.831012 445.862757 8244.422856 562.931611 C 8126.521423 515.898678 7996.975424 487.37214 7857.654545 477.859642 C 7676.345576 465.277336 7477.998209 486.017244 7283.843198 537.83539 C 6661.648401 703.951134 6144.784534 1130.616056 5721.137349 1526.224284 C 5630.040648 1611.382495 5538.364686 1699.370106 5449.654519 1784.590668 C 5099.290288 2121.13955 4737.007385 2469.122213 4317.264631 2722.60579 C 3868.073703 2993.992984 3229.931148 3164.050633 2785.550508 2827.154558 C 2567.729172 2661.986355 2421.343146 2387.28889 2349.569917 2009.751836 C 2645.300579 2016.331142 2935.350603 1975.001405 3212.680068 1886.266893 C 3571.74975 1771.543761 3842.813689 1595.841414 4018.030718 1363.955865 C 4117.408707 1232.629769 4185.62793 1072.273681 4210.166322 912.10689 C 4236.536117 739.875741 4213.087109 574.234306 4142.429748 433.006177 C 4061.523615 271.002121 3914.655152 141.042087 3728.987018 66.913152 C 3618.723907 22.832553 3501.049929 0.442891 3384.533022 0.518566 C 3311.601555 0.540092 3238.992774 9.287166 3168.997822 26.957285 C 2994.845551 70.810306 2828.165589 166.060146 2686.636557 302.295222 C 2553.638947 430.173712 2445.358588 591.043062 2373.218055 767.859225 C 2248.727721 1072.504553 2213.788519 1442.252752 2269.087168 1866.661223 C 2272.800801 1894.97418 2276.760713 1922.651257 2281.237471 1949.883042 C 1964.882985 1934.644232 1651.108715 1862.949206 1362.340449 1736.026177 C 791.479646 1485.061424 314.081663 1016.454208 52.285805 450.43433 L 0.590557 474.317495 C 134.208081 763.087553 319.328303 1024.803725 551.270009 1252.324134 C 783.076431 1479.749249 1048.309445 1660.103524 1339.528428 1788.14581 C 1630.612126 1916.092804 1942.820254 1989.719734 2267.305618 2006.639118 C 2275.237029 2007.167492 2283.26383 2007.560719 2291.250738 2007.723507 C 2364.999659 2406.27914 2519.332859 2696.691528 2751.112744 2872.501437 C 2860.361622 2955.323772 2986.621229 3012.897974 3126.493859 3043.43773 C 3254.305455 3071.551918 3393.775453 3077.12267 3540.997986 3060.231459 C 3802.002148 3030.209192 4088.098858 2927.618707 4346.619823 2771.408634 C 4771.825897 2514.489186 5136.462358 2164.319914 5489.084755 1825.719569 C 5577.699532 1740.634153 5669.144819 1652.686396 5759.955348 1567.933624 C 6178.473963 1177.008761 6688.539041 755.671761 7298.476876 592.860276 C 7498.088291 539.624779 7852.994241 480.444781 8190.922263 603.146615 C 8167.249639 621.476403 8143.982868 640.092071 8121.161842 659.22406 C 7897.126249 847.212051 7757.311345 1037.262764 7693.815318 1239.997332 C 7656.6709 1358.910202 7649.236857 1490.252699 7673.020139 1609.793903 C 7698.789409 1739.434618 7758.986306 1850.430098 7847.264545 1930.823489 C 7974.301748 2046.40978 8156.237107 2085.939757 8346.631992 2039.161885 C 8564.15801 1985.797993 8742.65386 1833.920313 8812.647061 1642.641865 C 8876.261318 1468.722754 8866.126937 1268.147791 8783.702923 1078.163422 C 8705.236892 896.632541 8570.319919 741.705111 8403.929366 641.699074 C 8372.23477 622.610949 8339.395488 605.144582 8305.50691 589.164828 C 9061.571047 56.619618 10143.266314 -9.815308 10949.620635 445.272311 L 10977.509267 395.716927 C 10759.908627 272.99309 10520.735885 184.849406 10266.85755 133.896887 C 10019.646259 84.403181 9764.824793 71.230786 9509.457361 94.701901 Z M 2325.540038 1859.281361 C 2271.495461 1444.86152 2305.262307 1084.80916 2425.88329 789.376294 C 2570.887586 434.432356 2860.978653 163.476456 3182.939475 82.10173 C 3541.695475 -8.359306 3940.787497 156.819202 4091.610388 458.518011 C 4220.088568 715.542776 4172.34757 1065.549457 3972.772971 1329.648408 C 3804.559347 1551.898701 3543.038002 1720.968424 3195.358082 1832.181122 C 2942.438466 1913.019769 2676.260692 1952.954495 2409.704417 1952.964107 C 2386.189439 1952.992066 2362.729958 1952.654438 2339.230584 1952.08637 C 2334.23521 1921.858865 2329.581506 1890.860332 2325.540038 1859.281361 Z M 8374.592503 690.436668 C 8667.180407 866.18359 8890.920117 1263.152353 8759.1476 1623.167582 C 8695.724124 1796.816399 8532.327813 1935.049424 8333.016404 1983.842441 C 8285.173133 1995.668159 8238.177923 2001.41405 8192.571908 2001.46129 C 8074.495775 2001.45035 7966.940115 1962.716637 7885.57005 1888.605711 C 7729.507419 1746.706179 7674.38393 1492.790757 7748.204501 1257.063243 C 7808.301213 1064.883924 7942.281688 883.673175 8157.817066 702.849717 C 8188.716852 676.863341 8220.372845 651.814313 8252.649761 627.60734 C 8293.881804 645.522374 8334.669869 666.362102 8374.592503 690.436668 Z M 8374.592503 690.436668 " stroke="#1a1a1a" stroke-width="1" stroke-opacity="1" stroke-miterlimit="10"/></g></g></g></g></svg>